<?xml version="1.0" encoding="utf-8"?>
<!-- Generator: Adobe Illustrator 16.0.0, SVG Export Plug-In . SVG Version: 6.00 Build 0)  -->
<!DOCTYPE svg PUBLIC "-//W3C//DTD SVG 1.1//EN" "http://www.w3.org/Graphics/SVG/1.1/DTD/svg11.dtd">
<svg version="1.1" id="Layer_1" xmlns="http://www.w3.org/2000/svg" xmlns:xlink="http://www.w3.org/1999/xlink" x="0px" y="0px"
	 width="22px" height="22px" viewBox="0 0 22 22" enable-background="new 0 0 22 22" xml:space="preserve">
<path fill="#164899" d="M14.947,6.837c0.627-0.158,1.226-0.306,1.821-0.457c0.634-0.159,1.269-0.32,1.902-0.48
	c0.249-0.063,0.288-0.042,0.351,0.208c0.881,3.515,1.763,7.029,2.646,10.544c0.095,0.377,0.186,0.76,0.29,1.139
	c0.046,0.176-0.002,0.27-0.178,0.311c-1.226,0.307-2.448,0.617-3.674,0.928c-0.187,0.045-0.236-0.061-0.273-0.209
	c-0.301-1.215-0.604-2.426-0.907-3.639c-0.634-2.541-1.267-5.081-1.9-7.619c-0.011-0.048-0.028-0.094-0.08-0.14
	c0,0.071,0,0.143,0,0.215c-0.009,3.675-0.016,7.35-0.024,11.024c0,0.311-0.021,0.332-0.325,0.332c-1.194,0-2.389,0-3.584,0
	c-0.274,0-0.298-0.025-0.298-0.297c0.005-5.141,0.011-10.28,0.017-15.419c0-0.301,0.017-0.316,0.316-0.316c1.208,0,2.417,0,3.624,0
	c0.244,0,0.277,0.031,0.277,0.278c0,1.112,0,2.223,0,3.334C14.947,6.651,14.947,6.727,14.947,6.837z M12.857,4.667
	c-0.398,0-0.793,0.003-1.192-0.002c-0.173-0.002-0.243,0.075-0.243,0.244c0.004,0.353,0.004,0.705,0.002,1.058
	c-0.002,0.159,0.065,0.235,0.229,0.235c0.803-0.002,1.604-0.003,2.404,0c0.171,0,0.245-0.073,0.243-0.244
	c-0.005-0.347-0.007-0.693,0-1.039c0.002-0.179-0.069-0.256-0.252-0.253C13.654,4.672,13.256,4.667,12.857,4.667z M18.634,7.692
	c-0.078,0.012-0.11,0.015-0.141,0.023c-0.781,0.197-1.565,0.397-2.349,0.593c-0.16,0.04-0.211,0.125-0.169,0.279
	c0.091,0.347,0.182,0.694,0.269,1.042c0.036,0.145,0.117,0.204,0.267,0.166c0.796-0.202,1.591-0.402,2.388-0.601
	c0.141-0.035,0.188-0.116,0.151-0.255c-0.093-0.366-0.184-0.734-0.286-1.098C18.747,7.777,18.667,7.73,18.634,7.692z M12.857,16.627
	c-0.402,0-0.807,0.004-1.211-0.002c-0.167,0-0.255,0.066-0.238,0.24c0.004,0.051,0.004,0.102,0,0.154
	c-0.017,0.176,0.069,0.242,0.238,0.24c0.243-0.006,0.488-0.002,0.731-0.002c0.552,0,1.102-0.002,1.653,0.002
	c0.167,0,0.256-0.063,0.241-0.24c-0.005-0.043,0-0.088,0-0.135c-0.005-0.219-0.039-0.254-0.259-0.258
	C13.629,16.625,13.243,16.627,12.857,16.627z M18.007,16.695c0.021,0.107,0.034,0.17,0.048,0.234c0.064,0.273,0.1,0.293,0.369,0.225
	c0.702-0.178,1.402-0.359,2.105-0.531c0.455-0.109,0.4-0.111,0.294-0.547c-0.03-0.125-0.11-0.164-0.231-0.133
	c-0.808,0.201-1.613,0.402-2.418,0.613C18.102,16.574,18.05,16.656,18.007,16.695z"/>
<path fill="#164899" d="M4.207,10.966c0,2.571,0,5.141,0,7.709c0,0.299-0.018,0.318-0.316,0.318c-1.196,0-2.39,0-3.585,0
	C0.025,18.994,0,18.969,0,18.682C0.008,13.551,0.016,8.417,0.025,3.283c0-0.314,0.009-0.322,0.328-0.322c1.188,0,2.376,0,3.566,0
	c0.302,0,0.317,0.016,0.317,0.315c0,2.563,0,5.126,0,7.69C4.227,10.966,4.216,10.966,4.207,10.966z M2.125,4.667
	c-0.392,0-0.784,0-1.175,0c-0.218,0-0.255,0.04-0.256,0.26C0.693,5.276,0.697,5.623,0.692,5.97c-0.003,0.166,0.071,0.232,0.23,0.232
	c0.804-0.002,1.607-0.002,2.41,0c0.164,0,0.23-0.073,0.228-0.235c-0.005-0.354-0.006-0.706,0-1.06
	c0.003-0.173-0.067-0.244-0.24-0.242C2.922,4.672,2.524,4.667,2.125,4.667z M2.094,17.258c0.397,0,0.794,0.002,1.192,0
	c0.219-0.002,0.254-0.049,0.256-0.307c0-0.275-0.033-0.32-0.252-0.324c-0.789-0.002-1.578-0.002-2.367,0
	c-0.22,0.004-0.254,0.047-0.255,0.307c-0.001,0.277,0.03,0.322,0.253,0.324C1.312,17.26,1.703,17.258,2.094,17.258z"/>
<path fill="#164899" d="M5.393,11.809c0-2.274,0-4.549,0-6.824c0-0.303,0.015-0.318,0.313-0.318c1.195,0,2.391,0,3.585,0
	c0.276,0,0.31,0.033,0.309,0.31C9.592,9.539,9.583,14.1,9.574,18.662c0,0.289-0.016,0.307-0.308,0.307c-1.202,0-2.402,0-3.604,0
	c-0.271,0-0.298-0.029-0.298-0.297c0-2.289,0-4.576,0-6.863C5.374,11.809,5.384,11.809,5.393,11.809z M7.499,6.402
	c-0.397,0-0.795,0.003-1.193-0.002C6.14,6.398,6.054,6.459,6.056,6.635C6.061,6.995,6.06,7.353,6.057,7.713
	c-0.001,0.152,0.068,0.223,0.22,0.223c0.808-0.001,1.617-0.002,2.424,0c0.165,0,0.232-0.075,0.23-0.234
	c-0.002-0.353-0.003-0.705,0-1.058C8.935,6.475,8.865,6.398,8.691,6.4C8.293,6.406,7.896,6.402,7.499,6.402z M7.48,17.258
	c0.39,0,0.782-0.004,1.173,0.002c0.174,0.002,0.27-0.061,0.254-0.25c-0.005-0.057-0.003-0.113-0.001-0.17
	c0.005-0.137-0.059-0.209-0.192-0.209c-0.827-0.004-1.653-0.004-2.48,0c-0.135,0-0.198,0.07-0.193,0.205
	c0.002,0.059,0.004,0.113,0,0.172c-0.016,0.182,0.069,0.254,0.248,0.252C6.686,17.254,7.083,17.258,7.48,17.258z"/>
</svg>
